<?xml version="1.0" standalone="no"?>
<!DOCTYPE svg PUBLIC "-//W3C//DTD SVG 20010904//EN"
 "http://www.w3.org/TR/2001/REC-SVG-20010904/DTD/svg10.dtd">
<svg version="1.0" xmlns="http://www.w3.org/2000/svg"
 width="120.000000pt" height="120.000000pt" viewBox="0 0 120.000000 120.000000"
 preserveAspectRatio="xMidYMid meet">
<metadata>
Created by potrace 1.14, written by Peter Selinger 2001-2017
</metadata>
<g transform="translate(0.000000,120.000000) scale(0.100000,-0.100000)"
fill="#000000" stroke="none">
<path d="M485 1019 c-60 -44 -145 -105 -188 -137 -44 -31 -98 -70 -121 -87
-23 -16 -56 -41 -73 -55 l-31 -25 70 -215 c38 -118 84 -257 101 -309 l32 -94
315 1 c173 0 320 1 326 1 5 1 17 22 26 48 20 57 142 434 168 515 l18 57 -259
188 c-142 103 -262 189 -266 190 -5 1 -57 -34 -118 -78z"/>
</g>
</svg>
